<svg width="79" height="50" viewBox="0 0 79 50" fill="none" xmlns="http://www.w3.org/2000/svg">
<path d="M32.7446 45.1299C29.0746 45.9199 25.9846 46.4399 23.7446 46.7799C18.3946 47.5899 15.9446 47.6499 13.3046 47.2099C10.9746 46.8299 8.13456 46.3199 7.30456 44.3599C6.79456 43.0899 7.30456 41.6699 7.87456 40.2499C8.50179 38.6502 9.43217 37.1867 10.6146 35.9399C12.687 33.6365 14.9629 31.5246 17.4146 29.6299C19.1946 28.3099 20.9946 26.9899 23.1946 25.4899L24.1946 24.7999C24.1946 24.7999 26.0146 23.5799 27.9046 22.4099C31.3946 20.2499 37.4946 17.0199 39.5846 15.9199C42.8046 14.2199 44.4546 13.3499 46.2946 12.4699C50.5946 10.4699 53.3546 9.36994 54.0646 9.09994C56.0652 8.25284 58.1365 7.58359 60.2546 7.09994C63.2546 6.52994 66.6246 5.90994 69.9546 7.60994C70.3546 7.81994 74.3946 9.94994 75.2846 14.0499C75.4992 15.2907 75.4992 16.5592 75.2846 17.7999C75.047 19.8113 74.5216 21.7781 73.7246 23.6399C73.0842 25.3217 72.3118 26.9501 71.4146 28.5099C72.6436 26.9796 73.7599 25.362 74.7546 23.6699C76.4146 20.9999 77.3646 19.3299 77.8746 16.9999C78.1046 15.9999 79.2746 11.0899 76.5246 6.82994C75.5859 5.41952 74.3632 4.2206 72.9346 3.30994C71.4801 2.42471 69.8722 1.82088 68.1946 1.52994C65.8611 1.01923 63.4625 0.874169 61.0846 1.09994C56.2446 1.49994 52.6846 2.99994 48.7646 4.68994C46.8846 5.49994 47.4546 5.35994 39.8946 8.99994C36.2546 10.7499 36.6846 10.5399 34.6846 11.4699C31.1246 13.2199 27.7746 14.8499 23.7946 17.1999C20.9846 18.8599 19.1346 20.1199 17.7446 21.1199C16.5846 21.9499 15.7446 22.6299 15.1946 23.0399C12.2746 25.3199 10.1946 27.2699 9.34456 28.0399C7.66895 29.4754 6.12911 31.0621 4.74456 32.7799C3.30456 34.3754 2.19033 36.237 1.46456 38.2599C1.00456 39.6999 0.0845631 42.6099 1.25456 45.0799C3.45456 49.7199 11.6246 49.7699 14.3946 49.7799C17.1596 49.7445 19.9087 49.3546 22.5746 48.6199C26.0732 47.8011 29.4804 46.6319 32.7446 45.1299Z" fill="#4B73CD"/>
<path d="M46.2541 45.1299C49.9241 45.9199 53.0141 46.4399 55.2541 46.7799C60.6041 47.5899 63.0641 47.6499 65.7041 47.2099C68.0241 46.8299 70.8741 46.3199 71.7041 44.3599C72.2241 43.0899 71.7041 41.6699 71.1341 40.2499C70.5069 38.6502 69.5765 37.1867 68.3941 35.9399C66.3217 33.6365 64.0458 31.5246 61.5941 29.6299C59.8141 28.3099 58.0141 26.9899 55.8241 25.4899L54.8241 24.7999C54.8241 24.7999 53.0141 23.5799 51.1141 22.4099C47.5741 20.2499 41.4741 16.9999 39.3841 15.9199C36.1641 14.2199 34.5141 13.3499 32.6741 12.4699C28.3741 10.4699 25.6141 9.36994 24.9141 9.09994C22.9108 8.25091 20.836 7.5816 18.7141 7.09994C15.6641 6.52994 12.3541 5.90994 9.01413 7.60994C8.61413 7.82994 4.57413 9.99994 3.68413 14.0599C3.47357 15.3011 3.47357 16.5688 3.68413 17.8099C3.92639 19.8204 4.45158 21.7865 5.24413 23.6499C5.88875 25.3298 6.661 26.9579 7.55413 28.5199C6.3251 26.9896 5.20883 25.372 4.21413 23.6799C2.59413 20.9999 1.68413 19.3299 1.12413 16.9999C0.894132 15.9999 -0.315868 11.0899 2.47413 6.82994C3.41274 5.41952 4.6355 4.2206 6.06413 3.30994C7.51857 2.42471 9.12651 1.82088 10.8041 1.52994C13.1376 1.01923 15.5362 0.874169 17.9141 1.09994C22.7641 1.49994 26.3441 2.99994 30.2341 4.68994C32.1141 5.49994 31.5441 5.35994 39.1041 8.99994C42.7441 10.7499 42.3641 10.5399 44.2841 11.4699C47.8541 13.2199 51.2041 14.8499 55.1741 17.1999C57.9841 18.8599 59.8341 20.1199 61.1741 21.1199C62.3341 21.9499 63.1741 22.6299 63.7341 23.0399C66.6441 25.3199 68.7341 27.2699 69.5741 28.0399C71.253 29.4752 72.7961 31.0619 74.1841 32.7799C75.6295 34.3788 76.7503 36.2434 77.4841 38.2699C77.9441 39.7099 78.8741 42.6199 77.6941 45.0899C75.4941 49.7299 67.3241 49.7799 64.5641 49.7899C61.799 49.7559 59.0497 49.366 56.3841 48.6299C52.8991 47.8045 49.5055 46.6319 46.2541 45.1299V45.1299Z" fill="#4B73CD"/>
<path d="M57.2126 29.056C60.8179 29.056 63.7405 26.1333 63.7405 22.528C63.7405 18.9227 60.8179 16 57.2126 16C53.6072 16 50.6846 18.9227 50.6846 22.528C50.6846 26.1333 53.6072 29.056 57.2126 29.056Z" fill="#4B73CD"/>
</svg>
