<svg width="87" height="58" viewBox="0 0 87 58" fill="none" xmlns="http://www.w3.org/2000/svg">
<g filter="url(#filter0_d)">
<path d="M36.7446 47.1299C33.0746 47.9199 29.9846 48.4399 27.7446 48.7799C22.3946 49.5899 19.9446 49.6499 17.3046 49.2099C14.9746 48.8299 12.1346 48.3199 11.3046 46.3599C10.7946 45.0899 11.3046 43.6699 11.8746 42.2499C12.5018 40.6502 13.4322 39.1867 14.6146 37.9399C16.687 35.6365 18.9629 33.5246 21.4146 31.6299C23.1946 30.3099 24.9946 28.9899 27.1946 27.4899L28.1946 26.7999C28.1946 26.7999 30.0146 25.5799 31.9046 24.4099C35.3946 22.2499 41.4946 19.0199 43.5846 17.9199C46.8046 16.2199 48.4546 15.3499 50.2946 14.4699C54.5946 12.4699 57.3546 11.3699 58.0646 11.0999C60.0652 10.2528 62.1365 9.58359 64.2546 9.09994C67.2546 8.52994 70.6246 7.90994 73.9546 9.60994C74.3546 9.81994 78.3946 11.9499 79.2846 16.0499C79.4992 17.2907 79.4992 18.5592 79.2846 19.7999C79.047 21.8113 78.5216 23.7781 77.7246 25.6399C77.0842 27.3217 76.3118 28.9501 75.4146 30.5099C76.6436 28.9796 77.7599 27.362 78.7546 25.6699C80.4146 22.9999 81.3646 21.3299 81.8746 18.9999C82.1046 17.9999 83.2746 13.0899 80.5246 8.82994C79.5859 7.41952 78.3632 6.2206 76.9346 5.30994C75.4801 4.42471 73.8722 3.82088 72.1946 3.52994C69.8611 3.01923 67.4625 2.87417 65.0846 3.09994C60.2446 3.49994 56.6846 4.99994 52.7646 6.68994C50.8846 7.49994 51.4546 7.35994 43.8946 10.9999C40.2546 12.7499 40.6846 12.5399 38.6846 13.4699C35.1246 15.2199 31.7746 16.8499 27.7946 19.1999C24.9846 20.8599 23.1346 22.1199 21.7446 23.1199C20.5846 23.9499 19.7446 24.6299 19.1946 25.0399C16.2746 27.3199 14.1946 29.2699 13.3446 30.0399C11.6689 31.4754 10.1291 33.0621 8.74456 34.7799C7.30456 36.3754 6.19033 38.237 5.46456 40.2599C5.00456 41.6999 4.08456 44.6099 5.25456 47.0799C7.45456 51.7199 15.6246 51.7699 18.3946 51.7799C21.1596 51.7445 23.9087 51.3546 26.5746 50.6199C30.0732 49.8011 33.4804 48.6319 36.7446 47.1299Z" fill="#4B73CD"/>
<path d="M50.2541 47.1299C53.9241 47.9199 57.0141 48.4399 59.2541 48.7799C64.6041 49.5899 67.0641 49.6499 69.7041 49.2099C72.0241 48.8299 74.8741 48.3199 75.7041 46.3599C76.2241 45.0899 75.7041 43.6699 75.1341 42.2499C74.5069 40.6502 73.5765 39.1867 72.3941 37.9399C70.3217 35.6365 68.0458 33.5246 65.5941 31.6299C63.8141 30.3099 62.0141 28.9899 59.8241 27.4899L58.8241 26.7999C58.8241 26.7999 57.0141 25.5799 55.1141 24.4099C51.5741 22.2499 45.4741 18.9999 43.3841 17.9199C40.1641 16.2199 38.5141 15.3499 36.6741 14.4699C32.3741 12.4699 29.6141 11.3699 28.9141 11.0999C26.9108 10.2509 24.836 9.5816 22.7141 9.09994C19.6641 8.52994 16.3541 7.90994 13.0141 9.60994C12.6141 9.82994 8.57413 11.9999 7.68413 16.0599C7.47357 17.3011 7.47357 18.5688 7.68413 19.8099C7.92639 21.8204 8.45158 23.7865 9.24413 25.6499C9.88875 27.3298 10.661 28.9579 11.5541 30.5199C10.3251 28.9896 9.20883 27.372 8.21413 25.6799C6.59413 22.9999 5.68413 21.3299 5.12413 18.9999C4.89413 17.9999 3.68413 13.0899 6.47413 8.82994C7.41274 7.41952 8.6355 6.2206 10.0641 5.30994C11.5186 4.42471 13.1265 3.82088 14.8041 3.52994C17.1376 3.01923 19.5362 2.87417 21.9141 3.09994C26.7641 3.49994 30.3441 4.99994 34.2341 6.68994C36.1141 7.49994 35.5441 7.35994 43.1041 10.9999C46.7441 12.7499 46.3641 12.5399 48.2841 13.4699C51.8541 15.2199 55.2041 16.8499 59.1741 19.1999C61.9841 20.8599 63.8341 22.1199 65.1741 23.1199C66.3341 23.9499 67.1741 24.6299 67.7341 25.0399C70.6441 27.3199 72.7341 29.2699 73.5741 30.0399C75.253 31.4752 76.7961 33.0619 78.1841 34.7799C79.6295 36.3788 80.7503 38.2434 81.4841 40.2699C81.9441 41.7099 82.8741 44.6199 81.6941 47.0899C79.4941 51.7299 71.3241 51.7799 68.5641 51.7899C65.799 51.7559 63.0497 51.366 60.3841 50.6299C56.8991 49.8045 53.5055 48.6319 50.2541 47.1299V47.1299Z" fill="#4B73CD"/>
<path d="M61.2126 31.056C64.8179 31.056 67.7405 28.1333 67.7405 24.528C67.7405 20.9227 64.8179 18 61.2126 18C57.6072 18 54.6846 20.9227 54.6846 24.528C54.6846 28.1333 57.6072 31.056 61.2126 31.056Z" fill="#4B73CD"/>
</g>
<defs>
<filter id="filter0_d" x="0.666016" y="0.996704" width="85.6521" height="56.7932" filterUnits="userSpaceOnUse" color-interpolation-filters="sRGB">
<feFlood flood-opacity="0" result="BackgroundImageFix"/>
<feColorMatrix in="SourceAlpha" type="matrix" values="0 0 0 0 0 0 0 0 0 0 0 0 0 0 0 0 0 0 127 0"/>
<feOffset dy="2"/>
<feGaussianBlur stdDeviation="2"/>
<feColorMatrix type="matrix" values="0 0 0 0 0 0 0 0 0 0 0 0 0 0 0 0 0 0 0.25 0"/>
<feBlend mode="normal" in2="BackgroundImageFix" result="effect1_dropShadow"/>
<feBlend mode="normal" in="SourceGraphic" in2="effect1_dropShadow" result="shape"/>
</filter>
</defs>
</svg>
