<svg width="257" height="70" viewBox="0 0 257 70" fill="none" xmlns="http://www.w3.org/2000/svg">
<path d="M18.792 31.112C16.728 30.536 14.784 29.888 12.96 29.168C11.136 28.448 9.528 27.56 8.136 26.504C6.792 25.4 5.712 24.104 4.896 22.616C4.128 21.08 3.744 19.208 3.744 17C3.744 14.552 4.224 12.512 5.184 10.88C6.192 9.2 7.488 7.856 9.072 6.848C10.656 5.84 12.408 5.12 14.328 4.688C16.296 4.256 18.24 4.04 20.16 4.04C23.76 4.04 26.832 4.328 29.376 4.904C31.968 5.48 34.392 6.224 36.648 7.136L35.208 13.328C32.376 12.224 29.76 11.408 27.36 10.88C25.008 10.304 22.464 10.016 19.728 10.016C18.912 10.016 18 10.112 16.992 10.304C16.032 10.448 15.144 10.76 14.328 11.24C13.512 11.672 12.816 12.296 12.24 13.112C11.712 13.88 11.448 14.888 11.448 16.136C11.448 17.24 11.64 18.2 12.024 19.016C12.456 19.784 13.08 20.456 13.896 21.032C14.712 21.608 15.72 22.136 16.92 22.616C18.168 23.096 19.632 23.6 21.312 24.128C24.528 25.136 27.192 26.192 29.304 27.296C31.416 28.4 33.096 29.576 34.344 30.824C35.592 32.072 36.456 33.44 36.936 34.928C37.416 36.368 37.656 37.928 37.656 39.608C37.656 42.392 37.104 44.696 36 46.52C34.896 48.296 33.48 49.736 31.752 50.84C30.024 51.896 28.128 52.64 26.064 53.072C24 53.504 22.008 53.72 20.088 53.72C16.488 53.72 13.32 53.384 10.584 52.712C7.848 52.04 5.328 51.224 3.024 50.264L3.96 44.216C6.84 45.32 9.552 46.184 12.096 46.808C14.688 47.432 17.352 47.744 20.088 47.744C23.4 47.744 25.848 47.12 27.432 45.872C29.064 44.576 29.88 42.776 29.88 40.472C29.88 39.224 29.64 38.144 29.16 37.232C28.728 36.272 28.032 35.432 27.072 34.712C26.16 33.992 25.008 33.344 23.616 32.768C22.224 32.192 20.616 31.64 18.792 31.112ZM52.4469 53H45.1749V4.76H52.4469V53ZM68.6188 16.352V53H61.3468V4.76H70.2028L94.1068 41.768V4.76H101.379V53H92.5228L68.6188 16.352ZM146.572 17.648C146.572 19.712 146.068 21.68 145.06 23.552C144.1 25.424 142.54 26.912 140.38 28.016C143.116 29.072 145.084 30.68 146.284 32.84C147.532 34.952 148.156 37.208 148.156 39.608C148.156 41.432 147.844 43.16 147.22 44.792C146.596 46.424 145.636 47.864 144.34 49.112C143.092 50.312 141.508 51.272 139.588 51.992C137.668 52.664 135.436 53 132.892 53H110.284V4.76H131.308C133.852 4.76 136.084 5.096 138.004 5.768C139.924 6.392 141.508 7.28 142.756 8.432C144.052 9.584 145.012 10.952 145.636 12.536C146.26 14.12 146.572 15.824 146.572 17.648ZM117.556 31.472V46.88H131.452C132.796 46.88 134.02 46.76 135.124 46.52C136.276 46.232 137.26 45.776 138.076 45.152C138.94 44.528 139.612 43.736 140.092 42.776C140.572 41.768 140.812 40.568 140.812 39.176C140.812 37.736 140.572 36.536 140.092 35.576C139.612 34.616 138.964 33.824 138.148 33.2C137.332 32.576 136.348 32.144 135.196 31.904C134.092 31.616 132.868 31.472 131.524 31.472H117.556ZM129.868 25.352C131.212 25.352 132.436 25.256 133.54 25.064C134.692 24.824 135.676 24.44 136.492 23.912C137.356 23.336 138.028 22.592 138.508 21.68C138.988 20.72 139.228 19.52 139.228 18.08C139.228 16.688 138.988 15.536 138.508 14.624C138.028 13.664 137.356 12.92 136.492 12.392C135.676 11.816 134.692 11.432 133.54 11.24C132.436 11 131.212 10.88 129.868 10.88H117.556V25.352H129.868ZM162.908 53H155.636V4.76H162.908V53Z" fill="black"/>
<g filter="url(#filter0_d)">
<path d="M206.745 48.1299C203.075 48.9199 199.985 49.4399 197.745 49.7799C192.395 50.5899 189.945 50.6499 187.305 50.2099C184.975 49.8299 182.135 49.3199 181.305 47.3599C180.795 46.0899 181.305 44.6699 181.875 43.2499C182.502 41.6502 183.432 40.1867 184.615 38.9399C186.687 36.6365 188.963 34.5246 191.415 32.6299C193.195 31.3099 194.995 29.9899 197.195 28.4899L198.195 27.7999C198.195 27.7999 200.015 26.5799 201.905 25.4099C205.395 23.2499 211.495 20.0199 213.585 18.9199C216.805 17.2199 218.455 16.3499 220.295 15.4699C224.595 13.4699 227.355 12.3699 228.065 12.0999C230.065 11.2528 232.137 10.5836 234.255 10.0999C237.255 9.52994 240.625 8.90994 243.955 10.6099C244.355 10.8199 248.395 12.9499 249.285 17.0499C249.499 18.2907 249.499 19.5592 249.285 20.7999C249.047 22.8113 248.522 24.7781 247.725 26.6399C247.084 28.3217 246.312 29.9501 245.415 31.5099C246.644 29.9796 247.76 28.362 248.755 26.6699C250.415 23.9999 251.365 22.3299 251.875 19.9999C252.105 18.9999 253.275 14.0899 250.525 9.82994C249.586 8.41952 248.363 7.2206 246.935 6.30994C245.48 5.42471 243.872 4.82088 242.195 4.52994C239.861 4.01923 237.463 3.87417 235.085 4.09994C230.245 4.49994 226.685 5.99994 222.765 7.68994C220.885 8.49994 221.455 8.35994 213.895 11.9999C210.255 13.7499 210.685 13.5399 208.685 14.4699C205.125 16.2199 201.775 17.8499 197.795 20.1999C194.985 21.8599 193.135 23.1199 191.745 24.1199C190.585 24.9499 189.745 25.6299 189.195 26.0399C186.275 28.3199 184.195 30.2699 183.345 31.0399C181.669 32.4754 180.129 34.0621 178.745 35.7799C177.305 37.3754 176.19 39.237 175.465 41.2599C175.005 42.6999 174.085 45.6099 175.255 48.0799C177.455 52.7199 185.625 52.7699 188.395 52.7799C191.16 52.7445 193.909 52.3546 196.575 51.6199C200.073 50.8011 203.48 49.6319 206.745 48.1299Z" fill="#4B73CD"/>
<path d="M220.254 48.1299C223.924 48.9199 227.014 49.4399 229.254 49.7799C234.604 50.5899 237.064 50.6499 239.704 50.2099C242.024 49.8299 244.874 49.3199 245.704 47.3599C246.224 46.0899 245.704 44.6699 245.134 43.2499C244.507 41.6502 243.577 40.1867 242.394 38.9399C240.322 36.6365 238.046 34.5246 235.594 32.6299C233.814 31.3099 232.014 29.9899 229.824 28.4899L228.824 27.7999C228.824 27.7999 227.014 26.5799 225.114 25.4099C221.574 23.2499 215.474 19.9999 213.384 18.9199C210.164 17.2199 208.514 16.3499 206.674 15.4699C202.374 13.4699 199.614 12.3699 198.914 12.0999C196.911 11.2509 194.836 10.5816 192.714 10.0999C189.664 9.52994 186.354 8.90994 183.014 10.6099C182.614 10.8299 178.574 12.9999 177.684 17.0599C177.474 18.3011 177.474 19.5688 177.684 20.8099C177.926 22.8204 178.452 24.7865 179.244 26.6499C179.889 28.3298 180.661 29.9579 181.554 31.5199C180.325 29.9896 179.209 28.372 178.214 26.6799C176.594 23.9999 175.684 22.3299 175.124 19.9999C174.894 18.9999 173.684 14.0899 176.474 9.82994C177.413 8.41952 178.635 7.2206 180.064 6.30994C181.519 5.42471 183.127 4.82088 184.804 4.52994C187.138 4.01923 189.536 3.87417 191.914 4.09994C196.764 4.49994 200.344 5.99994 204.234 7.68994C206.114 8.49994 205.544 8.35994 213.104 11.9999C216.744 13.7499 216.364 13.5399 218.284 14.4699C221.854 16.2199 225.204 17.8499 229.174 20.1999C231.984 21.8599 233.834 23.1199 235.174 24.1199C236.334 24.9499 237.174 25.6299 237.734 26.0399C240.644 28.3199 242.734 30.2699 243.574 31.0399C245.253 32.4752 246.796 34.0619 248.184 35.7799C249.63 37.3788 250.75 39.2434 251.484 41.2699C251.944 42.7099 252.874 45.6199 251.694 48.0899C249.494 52.7299 241.324 52.7799 238.564 52.7899C235.799 52.7559 233.05 52.366 230.384 51.6299C226.899 50.8045 223.505 49.6319 220.254 48.1299V48.1299Z" fill="#4B73CD"/>
<path d="M231.213 32.056C234.818 32.056 237.741 29.1333 237.741 25.528C237.741 21.9227 234.818 19 231.213 19C227.607 19 224.685 21.9227 224.685 25.528C224.685 29.1333 227.607 32.056 231.213 32.056Z" fill="#4B73CD"/>
</g>
<defs>
<filter id="filter0_d" x="170.666" y="1.9967" width="85.6521" height="56.7932" filterUnits="userSpaceOnUse" color-interpolation-filters="sRGB">
<feFlood flood-opacity="0" result="BackgroundImageFix"/>
<feColorMatrix in="SourceAlpha" type="matrix" values="0 0 0 0 0 0 0 0 0 0 0 0 0 0 0 0 0 0 127 0"/>
<feOffset dy="2"/>
<feGaussianBlur stdDeviation="2"/>
<feColorMatrix type="matrix" values="0 0 0 0 0 0 0 0 0 0 0 0 0 0 0 0 0 0 0.25 0"/>
<feBlend mode="normal" in2="BackgroundImageFix" result="effect1_dropShadow"/>
<feBlend mode="normal" in="SourceGraphic" in2="effect1_dropShadow" result="shape"/>
</filter>
</defs>
</svg>
